<svg xmlns="http://www.w3.org/2000/svg" version="1.1" xmlns:xlink="http://www.w3.org/1999/xlink" xmlns:svgjs="http://svgjs.dev/svgjs" viewBox="0 0 8.008155975710185 2.3790299991476846"><g transform="matrix(0.7332210010797378,0,0,0.7332210010797378,2.7885094544173814,0.925005523434327)"><rect width="8.873754806948341" height="8.873754806948341" x="-2.7790299991476846" y="-4.07612740347417" fill="#ffffff"></rect><g clip-path="url(#SvgjsClipPath28121)"><g clip-path="url(#SvgjsClipPath28116e20d06e3-489c-4899-8e02-3be442e7c678)"><path d=" M -1.1567155839547643 1.0681139694157507 C -0.7660492510666692 1.0681139694157509 -0.4493516145390135 0.751416332888095 -0.4493516145390135 0.36075000000000007 C -0.4493516145390135 -0.029916332888094865 -0.7660492510666692 -0.3466139694157508 -1.1567155839547643 -0.3466139694157508 C -1.547381916842859 -0.3466139694157508 -1.864079553370515 -0.029916332888094976 -1.864079553370515 0.36074999999999996 C -1.864079553370515 0.751416332888095 -1.547381916842859 1.0681139694157509 -1.1567155839547643 1.0681139694157509 Z M -1.1567155839547643 1.1174655839547643 C -0.7387931069772447 1.1174655839547643 -0.3999999999999999 0.7786724769775195 -0.3999999999999999 0.36074999999999996 C -0.3999999999999999 -0.05717247697751976 -0.7387931069772447 -0.3959655839547644 -1.1567155839547643 -0.3959655839547644 C -1.5746380609322839 -0.3959655839547644 -1.9134311679095286 -0.057172476977519815 -1.9134311679095286 0.36074999999999974 C -1.9134311679095286 0.7786724769775195 -1.5746380609322839 1.1174655839547643 -1.1567155839547643 1.1174655839547643 Z" fill="url(#gradient-cd96ab4c-1945-4d5e-8649-521c5c245aa5_0)" transform="matrix(1,0,0,1,0,0)" fill-rule="evenodd"></path></g><g clip-path="url(#SvgjsClipPath28116e20d06e3-489c-4899-8e02-3be442e7c678)"><path d=" M -0.9757642501334359 1.0956996920671926 C -1.0388607149912648 1.0802041259095256 -1.099683967397886 1.0565999683453986 -1.1567155839547638 1.0254764858761907 C -1.21374785463956 1.056585410907204 -1.2745716002038407 1.0801712611488274 -1.337666917776093 1.0956446582065411 C -1.3717508045481437 1.087279865815183 -1.4052062817727242 1.0765356786125109 -1.4377872687658897 1.063491125121045 C -1.3573832451429626 1.0543732718583951 -1.2791583658899994 1.0314354993391401 -1.2065625032396396 0.9956894087986983 C -1.2678627769576571 0.9558397631856512 -1.3230978786866114 0.9073607670205237 -1.3705634079803808 0.8517483462653392 C -1.4224054978383731 0.9124969889980876 -1.4834944027808066 0.9646990531668025 -1.5515835341275235 1.0064347700908565 C -1.5671764613120456 0.9968680506476462 -1.5824070822472804 0.9867785095282493 -1.597275396933228 0.9761661467326654 C -1.522842076108733 0.9338094619972566 -1.456674186076516 0.8783526040370342 -1.4019602254819217 0.8124679282255052 C -1.601367453097566 0.5443326584569186 -1.601367453097566 0.17716734154308073 -1.401960225481922 -0.09096792822550614 C -1.4566626823182185 -0.15682773299600222 -1.5228112712255673 -0.21226539621922696 -1.5972203630725765 -0.2546111128720141 C -1.5823887376270633 -0.2652418202878152 -1.5671764613120456 -0.2753497060274292 -1.551583534127523 -0.2849347700908562 C -1.4834984135339968 -0.24321574164080428 -1.422409736243735 -0.1910324442276209 -1.3705634079803812 -0.1303033801259912 C -1.32310128264829 -0.18591524812710408 -1.2678655636377187 -0.23439015220173381 -1.2065625032396388 -0.27423068419418717 C -1.2791552798789305 -0.30998721498897974 -1.3573812029729386 -0.3329299482348661 -1.4377872687658897 -0.34204615898169677 C -1.405206281772724 -0.3550907124731624 -1.3717508045481437 -0.3658348996758345 -1.3376669177760925 -0.3741996920671928 C -1.2745689611702518 -0.35870885628307614 -1.2137451108079473 -0.3351044666655881 -1.1567155839547643 -0.3039764858761906 C -1.0996840969728052 -0.3350870989965012 -1.0388601269479796 -0.35867303627802555 -0.9757642501334359 -0.3741446582065416 C -0.9416788880948298 -0.36579080172337425 -0.9082229696544193 -0.35505107031251826 -0.8756438991436382 -0.34200488358620806 C -0.9560474524973223 -0.3329016604605575 -1.0342732629823534 -0.3099729241491649 -1.1068686646698893 -0.27423068419418717 C -1.0455613185158483 -0.23439044866171346 -0.9903210151643148 -0.18591558804931577 -0.9428540014639849 -0.1303033801259908 C -0.8910121613058646 -0.19103165222230772 -0.8299281388211035 -0.2432149395973632 -0.7618476337820055 -0.2849347700908562 C -0.7462547065974829 -0.2753588783375378 -0.7310240856622479 -0.26524640644286956 -0.7161557709763005 -0.2545973544068516 C -0.7905870318797446 -0.212266411901314 -0.8567554256715277 -0.156832437023484 -0.9114709424276066 -0.09096792822550592 C -0.7120456457879283 0.1771613589536018 -0.7120456457879283 0.544338641046398 -0.9114709424276066 0.8124679282255056 C -0.8567717827121253 0.8783272918270404 -0.7906223909051908 0.9337609669087679 -0.7162108048369518 0.9760973544068514 C -0.731042430282465 0.9867464064428693 -0.7462547065974829 0.9968588783375374 -0.7618476337820055 1.0064347700908562 C -0.8299311108729004 0.9647190298964148 -0.8910157371681311 0.912535226693914 -0.9428540014639849 0.8518033801259906 C -0.9903251024681136 0.9074154664492864 -1.0455646847915618 0.9558943281444392 -1.1068686646698893 0.9957444426593494 C -1.0342728020195295 1.0314905331997914 -0.9560479227665665 1.0544283057190469 -0.8756438991436397 1.0635461589816964 C -0.9082248861368045 1.0765907124731626 -0.9416803633613848 1.0873348996758345 -0.9757642501334362 1.0956996920671929 Z M -1.5021631272626956 0.36074999999999996 C -1.502402661769164 0.21334544927779603 -1.456373103810112 0.06958308498413651 -1.3705634079803923 -0.05027038827388591 C -1.2847595831522698 0.06958603481390524 -1.2387306467018009 0.2133464579734779 -1.2389636886980657 0.36074999999999996 C -1.238730646701792 0.5081535420264798 -1.2847595831522525 0.6519139651860553 -1.3705634079803564 0.771770388273868 C -1.4563731038101038 0.6519169150158819 -1.50240266176916 0.5081545507222238 -1.5021631272626956 0.36074999999999974 Z M -1.1896120741590526 0.36074999999999996 C -1.1893519134736028 0.5235279652033105 -1.2418271218783032 0.6820107213750739 -1.3391803489439935 0.8124679282254939 C -1.2876569995357774 0.8745016185739816 -1.2259550468600238 0.9273172245742198 -1.1567155839547647 0.9686540247537685 C -1.0874736140269357 0.927320713526921 -1.0257711079384273 0.8745046338167155 -0.974250818965526 0.8124679282255052 C -1.173676115605205 0.544338641046398 -1.173676115605205 0.17716135895360147 -0.9742508189655263 -0.09096792822550614 C -1.0257711079384277 -0.15300463381671645 -1.0874736140269359 -0.20582071352692188 -1.1567155839547647 -0.24715402475376955 C -1.225955046860023 -0.20581722457422047 -1.287656999535777 -0.15300161857398234 -1.339180348944002 -0.09096792822550614 C -1.2418297890903331 0.0394906686175705 -1.18935488317072 0.19797251124039722 -1.1896120741590521 0.36075000000000007 Z M -0.9428540014639851 -0.0502703882739024 C -1.1183398373646947 0.19564671574138154 -1.1183398373646947 0.5258532842586183 -0.9428540014639851 0.7717703882739022 C -0.7673891218454707 0.5258465741697387 -0.7673891218454707 0.19565342583026074 -0.9428540014639853 -0.05027038827390251 Z" fill="url(#gradient-cd96ab4c-1945-4d5e-8649-521c5c245aa5_1)" transform="matrix(1,0,0,1,0,0)" fill-rule="evenodd"></path></g></g><g><path d=" M 0.906 0.7124999999999999 Q 0.906 0.7214999999999999 0.9015 0.7214999999999999 Q 0.855 0.7214999999999999 0.8295 0.72 L 0.7305 0.7184999999999999 L 0.63 0.72 Q 0.6045 0.7214999999999999 0.558 0.7214999999999999 Q 0.5535 0.7214999999999999 0.5535 0.7124999999999999 Q 0.5535 0.7034999999999999 0.558 0.7034999999999999 Q 0.6 0.7034999999999999 0.6195 0.696 Q 0.639 0.6884999999999999 0.6465 0.66675 Q 0.654 0.6449999999999999 0.654 0.5999999999999999 L 0.654 0.3869999999999999 L 0.2925 0.3869999999999999 L 0.2925 0.5999999999999999 Q 0.2925 0.6449999999999999 0.3 0.6659999999999999 Q 0.3075 0.6869999999999999 0.32775 0.6952499999999999 Q 0.34800000000000003 0.7034999999999999 0.39 0.7034999999999999 Q 0.393 0.7034999999999999 0.393 0.7124999999999999 Q 0.393 0.7214999999999999 0.39 0.7214999999999999 Q 0.3435 0.7214999999999999 0.318 0.72 L 0.2175 0.7184999999999999 L 0.12 0.72 Q 0.093 0.7214999999999999 0.045 0.7214999999999999 Q 0.042 0.7214999999999999 0.042 0.7124999999999999 Q 0.042 0.7034999999999999 0.045 0.7034999999999999 Q 0.0885 0.7034999999999999 0.10875 0.696 Q 0.129 0.6884999999999999 0.1365 0.66675 Q 0.14400000000000002 0.6449999999999999 0.14400000000000002 0.5999999999999999 L 0.14400000000000002 0.1409999999999999 Q 0.14400000000000002 0.09599999999999986 0.1365 0.07499999999999996 Q 0.129 0.05399999999999994 0.10875 0.04574999999999996 Q 0.0885 0.03749999999999987 0.048 0.03749999999999987 Q 0.043500000000000004 0.03749999999999987 0.043500000000000004 0.02849999999999986 Q 0.043500000000000004 0.01949999999999985 0.048 0.01949999999999985 L 0.12 0.020999999999999908 Q 0.18 0.02399999999999991 0.2175 0.02399999999999991 Q 0.258 0.02399999999999991 0.318 0.020999999999999908 L 0.39 0.01949999999999985 Q 0.393 0.01949999999999985 0.393 0.02849999999999986 Q 0.393 0.03749999999999987 0.39 0.03749999999999987 Q 0.33 0.03749999999999987 0.31125 0.058499999999999885 Q 0.2925 0.0794999999999999 0.2925 0.1439999999999999 L 0.2925 0.3479999999999999 L 0.654 0.3479999999999999 L 0.654 0.1439999999999999 Q 0.654 0.09899999999999987 0.6465 0.07724999999999993 Q 0.639 0.05549999999999988 0.6195 0.046499999999999875 Q 0.6 0.03749999999999987 0.558 0.03749999999999987 Q 0.5535 0.03749999999999987 0.5535 0.02849999999999986 Q 0.5535 0.01949999999999985 0.558 0.01949999999999985 L 0.63 0.020999999999999908 Q 0.6900000000000001 0.02399999999999991 0.7305 0.02399999999999991 Q 0.7665000000000001 0.02399999999999991 0.8295 0.020999999999999908 L 0.9015 0.01949999999999985 Q 0.906 0.01949999999999985 0.906 0.02849999999999986 Q 0.906 0.03749999999999987 0.9015 0.03749999999999987 Q 0.8595 0.03749999999999987 0.83925 0.04574999999999996 Q 0.8190000000000001 0.05399999999999994 0.8115 0.07499999999999996 Q 0.804 0.09599999999999986 0.804 0.1409999999999999 L 0.804 0.5999999999999999 Q 0.804 0.6449999999999999 0.8115 0.66675 Q 0.8190000000000001 0.6884999999999999 0.8385 0.696 Q 0.858 0.7034999999999999 0.9015 0.7034999999999999 Q 0.906 0.7034999999999999 0.906 0.7124999999999999 M 1.152028564453125 0.3179999999999999 Q 1.152028564453125 0.48449999999999993 1.225528564453125 0.5834999999999999 Q 1.299028564453125 0.6824999999999999 1.432528564453125 0.6824999999999999 Q 1.470028564453125 0.6824999999999999 1.509028564453125 0.6719999999999999 Q 1.548028564453125 0.6615 1.578028564453125 0.6405 L 1.579528564453125 0.6405 Q 1.5840285644531251 0.6405 1.587778564453125 0.6457499999999999 Q 1.591528564453125 0.6509999999999999 1.5885285644531248 0.6555 Q 1.4835285644531249 0.7394999999999999 1.357528564453125 0.7394999999999999 Q 1.240528564453125 0.7394999999999999 1.158778564453125 0.6892499999999999 Q 1.077028564453125 0.6389999999999999 1.035028564453125 0.5579999999999999 Q 0.993028564453125 0.4769999999999999 0.993028564453125 0.3824999999999999 Q 0.993028564453125 0.2789999999999999 1.044028564453125 0.19274999999999987 Q 1.095028564453125 0.10649999999999993 1.182028564453125 0.05624999999999991 Q 1.269028564453125 0.005999999999999894 1.371028564453125 0.005999999999999894 Q 1.482028564453125 0.005999999999999894 1.540528564453125 0.06449999999999989 Q 1.599028564453125 0.12299999999999989 1.599028564453125 0.21749999999999992 Q 1.599028564453125 0.23699999999999993 1.595278564453125 0.24449999999999988 Q 1.591528564453125 0.2519999999999999 1.581028564453125 0.2519999999999999 L 1.155028564453125 0.2534999999999999 Q 1.152028564453125 0.2924999999999999 1.152028564453125 0.3179999999999999 M 1.215778564453125 0.08999999999999986 Q 1.174528564453125 0.1379999999999999 1.159528564453125 0.22349999999999992 L 1.438528564453125 0.21899999999999986 Q 1.435528564453125 0.041999999999999926 1.3200285644531249 0.041999999999999926 Q 1.257028564453125 0.041999999999999926 1.215778564453125 0.08999999999999986 M 2.404532958984375 0.02849999999999986 Q 2.404532958984375 0.03749999999999987 2.401532958984375 0.03749999999999987 Q 2.356532958984375 0.03749999999999987 2.319782958984375 0.0734999999999999 Q 2.283032958984375 0.10949999999999993 2.262032958984375 0.17249999999999988 L 2.050532958984375 0.72 Q 2.014532958984375 0.819 1.960532958984375 0.8955 Q 1.906532958984375 0.972 1.848032958984375 1.002 Q 1.839032958984375 1.008 1.817282958984375 0.9907499999999999 Q 1.795532958984375 0.9734999999999999 1.782032958984375 0.948 Q 1.767032958984375 0.9135 1.767032958984375 0.8849999999999999 Q 1.767032958984375 0.8594999999999999 1.779032958984375 0.8564999999999999 Q 1.863032958984375 0.8444999999999999 1.922282958984375 0.81375 Q 1.981532958984375 0.7829999999999999 2.016032958984375 0.7184999999999999 L 1.740032958984375 0.1439999999999999 Q 1.710032958984375 0.08099999999999996 1.687532958984375 0.059249999999999914 Q 1.665032958984375 0.03749999999999987 1.626032958984375 0.03749999999999987 Q 1.621532958984375 0.03749999999999987 1.621532958984375 0.02849999999999986 Q 1.621532958984375 0.01949999999999985 1.626032958984375 0.01949999999999985 L 1.692032958984375 0.020999999999999908 Q 1.749032958984375 0.02399999999999991 1.801532958984375 0.02399999999999991 Q 1.839032958984375 0.02399999999999991 1.896032958984375 0.020999999999999908 L 1.962032958984375 0.01949999999999985 Q 1.966532958984375 0.01949999999999985 1.966532958984375 0.02849999999999986 Q 1.966532958984375 0.03749999999999987 1.962032958984375 0.03749999999999987 Q 1.884032958984375 0.03749999999999987 1.884032958984375 0.0824999999999999 Q 1.884032958984375 0.10199999999999987 1.897532958984375 0.1289999999999999 L 2.089532958984375 0.5189999999999999 L 2.221532958984375 0.16349999999999987 Q 2.233532958984375 0.13049999999999995 2.233532958984375 0.10649999999999993 Q 2.233532958984375 0.03749999999999987 2.140532958984375 0.03749999999999987 Q 2.136032958984375 0.03749999999999987 2.136032958984375 0.02849999999999986 Q 2.136032958984375 0.01949999999999985 2.140532958984375 0.01949999999999985 L 2.193032958984375 0.020999999999999908 Q 2.241032958984375 0.02399999999999991 2.287532958984375 0.02399999999999991 Q 2.313032958984375 0.02399999999999991 2.346032958984375 0.020999999999999908 L 2.401532958984375 0.01949999999999985 Q 2.404532958984375 0.01949999999999985 2.404532958984375 0.02849999999999986 M 3.730512451171875 0.7124999999999999 Q 3.730512451171875 0.7214999999999999 3.727512451171875 0.7214999999999999 Q 3.684012451171875 0.7214999999999999 3.658512451171875 0.72 L 3.555012451171875 0.7184999999999999 L 3.4560124511718753 0.72 Q 3.430512451171875 0.7214999999999999 3.387012451171875 0.7214999999999999 Q 3.382512451171875 0.7214999999999999 3.382512451171875 0.7124999999999999 Q 3.382512451171875 0.7034999999999999 3.387012451171875 0.7034999999999999 Q 3.429012451171875 0.7034999999999999 3.448512451171875 0.696 Q 3.468012451171875 0.6884999999999999 3.475512451171875 0.66675 Q 3.483012451171875 0.6449999999999999 3.483012451171875 0.5999999999999999 L 3.483012451171875 0.2789999999999999 Q 3.483012451171875 0.16649999999999987 3.451512451171875 0.10949999999999993 Q 3.420012451171875 0.05249999999999988 3.352512451171875 0.05249999999999988 Q 3.297012451171875 0.05249999999999988 3.246762451171875 0.08549999999999991 Q 3.196512451171875 0.11849999999999994 3.156012451171875 0.17849999999999988 Q 3.160512451171875 0.2054999999999999 3.160512451171875 0.23399999999999993 L 3.160512451171875 0.5999999999999999 Q 3.160512451171875 0.6449999999999999 3.167262451171875 0.66675 Q 3.1740124511718752 0.6884999999999999 3.194262451171875 0.696 Q 3.214512451171875 0.7034999999999999 3.256512451171875 0.7034999999999999 Q 3.261012451171875 0.7034999999999999 3.261012451171875 0.7124999999999999 Q 3.261012451171875 0.7214999999999999 3.256512451171875 0.7214999999999999 Q 3.213012451171875 0.7214999999999999 3.187512451171875 0.72 L 3.085512451171875 0.7184999999999999 L 2.9865124511718752 0.72 Q 2.961012451171875 0.7214999999999999 2.917512451171875 0.7214999999999999 Q 2.913012451171875 0.7214999999999999 2.913012451171875 0.7124999999999999 Q 2.913012451171875 0.7034999999999999 2.917512451171875 0.7034999999999999 Q 2.959512451171875 0.7034999999999999 2.979012451171875 0.6952499999999999 Q 2.998512451171875 0.6869999999999999 3.006012451171875 0.6659999999999999 Q 3.013512451171875 0.6449999999999999 3.013512451171875 0.5999999999999999 L 3.013512451171875 0.2789999999999999 Q 3.013512451171875 0.16799999999999993 2.980512451171875 0.10949999999999993 Q 2.947512451171875 0.050999999999999934 2.881512451171875 0.050999999999999934 Q 2.772012451171875 0.050999999999999934 2.686512451171875 0.17849999999999988 L 2.686512451171875 0.5999999999999999 Q 2.686512451171875 0.6449999999999999 2.694012451171875 0.66675 Q 2.701512451171875 0.6884999999999999 2.721012451171875 0.696 Q 2.740512451171875 0.7034999999999999 2.784012451171875 0.7034999999999999 Q 2.787012451171875 0.7034999999999999 2.787012451171875 0.7124999999999999 Q 2.787012451171875 0.7214999999999999 2.784012451171875 0.7214999999999999 Q 2.740512451171875 0.7214999999999999 2.715012451171875 0.72 L 2.611512451171875 0.7184999999999999 L 2.512512451171875 0.72 Q 2.487012451171875 0.7214999999999999 2.443512451171875 0.7214999999999999 Q 2.439012451171875 0.7214999999999999 2.439012451171875 0.7124999999999999 Q 2.439012451171875 0.7034999999999999 2.443512451171875 0.7034999999999999 Q 2.485512451171875 0.7034999999999999 2.505012451171875 0.696 Q 2.524512451171875 0.6884999999999999 2.531262451171875 0.66675 Q 2.538012451171875 0.6449999999999999 2.538012451171875 0.5999999999999999 L 2.538012451171875 0.1409999999999999 Q 2.538012451171875 0.09599999999999986 2.531262451171875 0.07499999999999996 Q 2.524512451171875 0.05399999999999994 2.503512451171875 0.04574999999999996 Q 2.482512451171875 0.03749999999999987 2.439012451171875 0.03749999999999987 Q 2.436012451171875 0.03749999999999987 2.436012451171875 0.02849999999999986 Q 2.436012451171875 0.01949999999999985 2.439012451171875 0.01949999999999985 L 2.590512451171875 0.020999999999999908 L 2.659512451171875 0.01949999999999985 Q 2.677512451171875 0.01949999999999985 2.6820124511718753 0.02474999999999994 Q 2.686512451171875 0.029999999999999916 2.686512451171875 0.04799999999999993 L 2.686512451171875 0.1289999999999999 Q 2.791512451171875 -1.1102230246251565e-16 2.938512451171875 -1.1102230246251565e-16 Q 3.021012451171875 -1.1102230246251565e-16 3.073512451171875 0.03674999999999995 Q 3.126012451171875 0.0734999999999999 3.147012451171875 0.13949999999999996 Q 3.256512451171875 -1.1102230246251565e-16 3.4080124511718752 -1.1102230246251565e-16 Q 3.516012451171875 -1.1102230246251565e-16 3.5737624511718753 0.062249999999999917 Q 3.631512451171875 0.12449999999999994 3.631512451171875 0.23399999999999993 L 3.631512451171875 0.5999999999999999 Q 3.631512451171875 0.6449999999999999 3.638262451171875 0.66675 Q 3.6450124511718753 0.6884999999999999 3.665262451171875 0.696 Q 3.685512451171875 0.7034999999999999 3.727512451171875 0.7034999999999999 Q 3.730512451171875 0.7034999999999999 3.730512451171875 0.7124999999999999 M 4.36955712890625 0.12449999999999994 Q 4.37105712890625 0.1529999999999999 4.37105712890625 0.1964999999999999 Q 4.37105712890625 0.20099999999999996 4.36280712890625 0.20099999999999996 Q 4.35455712890625 0.20099999999999996 4.35305712890625 0.1964999999999999 Q 4.31855712890625 0.11549999999999994 4.26905712890625 0.07724999999999993 Q 4.21955712890625 0.038999999999999924 4.14755712890625 0.038999999999999924 L 4.13705712890625 0.038999999999999924 Q 4.10405712890625 0.038999999999999924 4.08830712890625 0.0472499999999999 Q 4.07255712890625 0.05549999999999988 4.06730712890625 0.0764999999999999 Q 4.06205712890625 0.09749999999999992 4.06205712890625 0.14249999999999996 L 4.06205712890625 0.36149999999999993 Q 4.17155712890625 0.35999999999999993 4.22330712890625 0.3547499999999999 Q 4.27505712890625 0.3494999999999999 4.28405712890625 0.3494999999999999 Q 4.28855712890625 0.3494999999999999 4.29155712890625 0.3592499999999999 Q 4.29455712890625 0.36899999999999994 4.29455712890625 0.3824999999999999 Q 4.29455712890625 0.3959999999999999 4.29155712890625 0.4087499999999999 Q 4.28855712890625 0.42149999999999993 4.28405712890625 0.42149999999999993 Q 4.27655712890625 0.42149999999999993 4.22480712890625 0.4124999999999999 Q 4.17305712890625 0.4034999999999999 4.06205712890625 0.4019999999999999 L 4.06205712890625 0.5939999999999999 Q 4.06205712890625 0.6405 4.07180712890625 0.6629999999999999 Q 4.08155712890625 0.6854999999999999 4.10930712890625 0.6944999999999999 Q 4.13705712890625 0.7034999999999999 4.19555712890625 0.7034999999999999 Q 4.20005712890625 0.7034999999999999 4.20005712890625 0.7124999999999999 Q 4.20005712890625 0.7214999999999999 4.19555712890625 0.7214999999999999 Q 4.13705712890625 0.7214999999999999 4.10405712890625 0.72 L 3.98855712890625 0.7184999999999999 L 3.88805712890625 0.72 Q 3.86255712890625 0.7214999999999999 3.81605712890625 0.7214999999999999 Q 3.81305712890625 0.7214999999999999 3.81305712890625 0.7124999999999999 Q 3.81305712890625 0.7034999999999999 3.81605712890625 0.7034999999999999 Q 3.85955712890625 0.7034999999999999 3.87905712890625 0.696 Q 3.89855712890625 0.6884999999999999 3.90605712890625 0.66675 Q 3.91355712890625 0.6449999999999999 3.91355712890625 0.5999999999999999 L 3.91355712890625 0.1409999999999999 Q 3.91355712890625 0.09599999999999986 3.90605712890625 0.07499999999999996 Q 3.89855712890625 0.05399999999999994 3.87830712890625 0.04574999999999996 Q 3.85805712890625 0.03749999999999987 3.81605712890625 0.03749999999999987 Q 3.81305712890625 0.03749999999999987 3.81305712890625 0.02849999999999986 Q 3.81305712890625 0.01949999999999985 3.81605712890625 0.01949999999999985 L 4.35305712890625 0.01949999999999985 Q 4.3680571289062495 0.01949999999999985 4.3680571289062495 0.03149999999999986 L 4.36955712890625 0.12449999999999994 M 4.629837890625 0.6892499999999999 Q 4.540587890625 0.6389999999999999 4.494087890625 0.5564999999999999 Q 4.447587890625 0.4739999999999999 4.447587890625 0.3824999999999999 Q 4.447587890625 0.2654999999999999 4.500837890625 0.1792499999999999 Q 4.554087890625 0.09299999999999986 4.651587890625 0.0472499999999999 Q 4.749087890625 0.0014999999999999458 4.881087890625 0.0014999999999999458 Q 4.947087890625 0.0014999999999999458 5.007837890625 0.013499999999999956 Q 5.068587890625 0.025499999999999856 5.109087890625 0.04799999999999993 Q 5.119587890625 0.05249999999999988 5.121837890625 0.058499999999999885 Q 5.124087890625 0.06449999999999989 5.125587890625 0.08099999999999996 L 5.133087890625 0.22199999999999992 Q 5.133087890625 0.22649999999999992 5.124837890625 0.2272499999999999 Q 5.116587890625 0.22799999999999992 5.115087890625 0.22349999999999992 Q 4.9995878906249995 0.034499999999999864 4.846587890625 0.034499999999999864 Q 4.740087890625 0.034499999999999864 4.679337890625 0.11999999999999988 Q 4.618587890625 0.2054999999999999 4.618587890625 0.36299999999999993 Q 4.618587890625 0.5159999999999999 4.687587890625 0.6104999999999999 Q 4.756587890625 0.705 4.875087890625 0.705 Q 4.935087890625 0.705 4.962837890625 0.6922499999999999 Q 4.990587890625 0.6794999999999999 5.000337890625 0.6442499999999999 Q 5.010087890625 0.6089999999999999 5.010087890625 0.5325 Q 5.010087890625 0.49349999999999994 5.004087890625 0.4777499999999999 Q 4.998087890625 0.4619999999999999 4.9785878906250005 0.45674999999999993 Q 4.959087890625 0.4514999999999999 4.911087890625 0.4514999999999999 Q 4.902087890625 0.4514999999999999 4.902087890625 0.4394999999999999 Q 4.902087890625 0.4349999999999999 4.904337890625 0.4312499999999999 Q 4.906587890625 0.42749999999999994 4.909587890625 0.42749999999999994 Q 4.987587890625 0.4334999999999999 5.067087890625 0.4334999999999999 Q 5.103087890625 0.4334999999999999 5.1870878906249995 0.43049999999999994 Q 5.190087890625 0.43049999999999994 5.192337890625 0.4342499999999999 Q 5.194587890625 0.4379999999999999 5.194587890625 0.4409999999999999 Q 5.194587890625 0.4514999999999999 5.1870878906249995 0.4514999999999999 Q 5.1645878906250005 0.4499999999999999 5.155587890625 0.4559999999999999 Q 5.146587890625 0.4619999999999999 5.143587890625 0.4807499999999999 Q 5.1405878906249995 0.49949999999999994 5.1405878906249995 0.5474999999999999 Q 5.1405878906249995 0.6149999999999999 5.144337890625 0.6419999999999999 Q 5.148087890625 0.6689999999999999 5.148087890625 0.6794999999999999 Q 5.148087890625 0.6884999999999999 5.145087890625 0.69075 Q 5.142087890625 0.693 5.130087890625 0.6974999999999999 Q 5.029587890625 0.7394999999999999 4.839087890625 0.7394999999999999 Q 4.719087890625 0.7394999999999999 4.629837890625 0.6892499999999999" fill="#173054" fill-rule="nonzero"></path></g><g></g></g><defs><clipPath id="SvgjsClipPath28121"><path d=" M -1.9134311679095286 -0.3959655839547644 h 1.5134311679095287 v 1.5134311679095287 h -1.5134311679095287 Z"></path></clipPath><clipPath id="SvgjsClipPath28116e20d06e3-489c-4899-8e02-3be442e7c678"><path d=" M -1.9134311679095286 -0.3959655839547644 L -0.3999999999999999 -0.3959655839547644 L -0.3999999999999999 1.1174655839547643 L -1.9134311679095286 1.1174655839547643 Z"></path></clipPath><linearGradient id="gradient-cd96ab4c-1945-4d5e-8649-521c5c245aa5_0" x1="0" x2="1" y1="0" y2="1"><stop stop-color="#225777" offset="0"></stop><stop stop-color="#173054" offset="1"></stop></linearGradient><linearGradient id="gradient-cd96ab4c-1945-4d5e-8649-521c5c245aa5_1" x1="0" x2="1" y1="0" y2="1"><stop stop-color="#205273" offset="0"></stop><stop stop-color="#183458" offset="1"></stop></linearGradient></defs></svg>